<mxfile host="Electron" modified="2025-01-02T21:11:19.641Z" agent="Mozilla/5.0 (Windows NT 10.0; Win64; x64) AppleWebKit/537.36 (KHTML, like Gecko) draw.io/22.1.16 Chrome/120.0.6099.109 Electron/28.1.0 Safari/537.36" etag="-cJgJvi30jsrJEjbyYlf" version="22.1.16" type="device">
  <diagram name="Side-1" id="ptSSWMcXMNnXmQYJONsl">
    <mxGraphModel dx="1098" dy="1180" grid="1" gridSize="10" guides="1" tooltips="1" connect="1" arrows="1" fold="1" page="1" pageScale="1" pageWidth="827" pageHeight="1169" math="0" shadow="0">
      <root>
        <mxCell id="0" />
        <mxCell id="1" parent="0" />
        <mxCell id="6eXswm2txneg3VndsvAe-1" value="Audio" style="swimlane;fontStyle=1;align=center;verticalAlign=top;childLayout=stackLayout;horizontal=1;startSize=26;horizontalStack=0;resizeParent=1;resizeParentMax=0;resizeLast=0;collapsible=1;marginBottom=0;whiteSpace=wrap;html=1;" vertex="1" parent="1">
          <mxGeometry x="300" y="310" width="260" height="290" as="geometry" />
        </mxCell>
        <mxCell id="6eXswm2txneg3VndsvAe-2" value="- isI2CReady: bool&lt;br&gt;- timer: Timer*&lt;br&gt;- Iic: XIicPs" style="text;strokeColor=none;fillColor=none;align=left;verticalAlign=top;spacingLeft=4;spacingRight=4;overflow=hidden;rotatable=0;points=[[0,0.5],[1,0.5]];portConstraint=eastwest;whiteSpace=wrap;html=1;" vertex="1" parent="6eXswm2txneg3VndsvAe-1">
          <mxGeometry y="26" width="260" height="54" as="geometry" />
        </mxCell>
        <mxCell id="6eXswm2txneg3VndsvAe-3" value="" style="line;strokeWidth=1;fillColor=none;align=left;verticalAlign=middle;spacingTop=-1;spacingLeft=3;spacingRight=3;rotatable=0;labelPosition=right;points=[];portConstraint=eastwest;strokeColor=inherit;" vertex="1" parent="6eXswm2txneg3VndsvAe-1">
          <mxGeometry y="80" width="260" height="8" as="geometry" />
        </mxCell>
        <mxCell id="6eXswm2txneg3VndsvAe-4" value="+ Audio(Timer*, uint16_t): Audio&lt;br&gt;+ ReadBlocking(uint32_t*, uint32_t*): void&lt;br&gt;+ ReadNonBlocking(uint32_t*, uint32_t*): void&lt;br&gt;+ Write(uint32_t, uint32_t): void&lt;br&gt;+ ReadStatus(): uint32_t&lt;br&gt;+ WriteStatus(uint32_t): void&lt;br&gt;+ ClearReadyBit(): void&lt;br&gt;+ EnableOutput(): void&lt;br&gt;+ DisableOutput(): void&lt;br&gt;&lt;br&gt;- InitAudio(): void&lt;br&gt;- InitI2C(uint16_t): void&lt;br&gt;- AudioWriteToReg(uint8_t, uint16_t): void" style="text;strokeColor=none;fillColor=none;align=left;verticalAlign=top;spacingLeft=4;spacingRight=4;overflow=hidden;rotatable=0;points=[[0,0.5],[1,0.5]];portConstraint=eastwest;whiteSpace=wrap;html=1;" vertex="1" parent="6eXswm2txneg3VndsvAe-1">
          <mxGeometry y="88" width="260" height="202" as="geometry" />
        </mxCell>
      </root>
    </mxGraphModel>
  </diagram>
</mxfile>
